<svg xmlns="http://www.w3.org/2000/svg" version="1.1" xmlns:xlink="http://www.w3.org/1999/xlink" xmlns:svgjs="http://svgjs.dev/svgjs" width="1000" height="1000" viewBox="0 0 1000 1000"><rect width="1000" height="1000" fill="#ffffff"></rect><g transform="matrix(0.7,0,0,0.7,150.00040338463458,106.25)"><svg viewBox="0 0 320 360" data-background-color="#ffffff" preserveAspectRatio="xMidYMid meet" height="1125" width="1000" xmlns="http://www.w3.org/2000/svg" xmlns:xlink="http://www.w3.org/1999/xlink"><g id="tight-bounds" transform="matrix(1,0,0,1,0.00018440440442191175,0)"><svg viewBox="0 0 320 360" height="360" width="320"><g><svg></svg></g><g><svg viewBox="0 0 320 360" height="360" width="320"><g><path xmlns="http://www.w3.org/2000/svg" d="M294.684 112.125c-8.775-10.699-25.381-16.201-43-22.006-7.56-2.498-15.357-5.097-22.985-8.235-7.695-3.173-15.256-7.257-22.613-11.172-14.952-8.033-30.41-16.336-46.105-16.336-15.661 0-31.119 8.303-46.071 16.336-7.358 3.949-14.952 8.033-22.648 11.205-7.594 3.139-15.425 5.704-22.985 8.236-17.618 5.839-34.224 11.341-42.999 22.006-11.712 14.277-11.442 35.439-11.172 57.817 0.034 3.375 0.068 6.717 0.067 10.024 0 3.308-0.034 6.649-0.101 10.024-0.27 22.411-0.54 43.54 11.172 57.851 8.775 10.666 25.381 16.167 42.966 22.006 7.56 2.498 15.357 5.097 23.019 8.235 7.695 3.173 15.256 7.223 22.579 11.172 14.986 8.067 30.444 16.37 46.105 16.37 15.695 0 31.153-8.303 46.105-16.336 7.358-3.949 14.918-8.033 22.614-11.172 7.594-3.139 15.357-5.704 22.884-8.202 17.72-5.873 34.326-11.374 43.101-22.039 11.712-14.277 11.442-35.439 11.171-57.817-0.034-3.409-0.101-6.75-0.101-10.058 0-3.308 0.034-6.649 0.101-9.991 0.371-22.479 0.641-43.641-11.104-57.918zM305.552 103.215c-15.728-19.171-45.801-23.727-71.486-34.326-22.985-9.45-46.375-28.588-74.051-28.587-27.676 0-51.066 19.137-74.052 28.587-25.719 10.598-55.758 15.155-71.486 34.326-17.078 20.791-14.311 50.121-14.311 76.785 0 26.63-2.768 55.994 14.277 76.785 15.728 19.171 45.801 23.727 71.487 34.326 22.985 9.484 46.375 28.588 74.051 28.587 27.676 0 51.066-19.103 74.051-28.587 25.719-10.598 55.758-15.155 71.486-34.326 17.045-20.791 14.277-50.121 14.277-76.785 0.068-26.664 2.835-55.994-14.243-76.785zM309.872 189.923c0.304 23.221 0.574 45.059-12.083 60.483-9.518 11.577-26.664 17.281-44.822 23.289-7.56 2.498-15.29 5.063-22.715 8.134-7.493 3.071-14.952 7.088-22.175 10.969-15.458 8.303-31.355 16.842-48.062 16.842-16.707 0-32.604-8.539-47.995-16.808-7.257-3.915-14.75-7.932-22.243-11.003-7.527-3.105-15.256-5.67-22.748-8.134-18.192-6.008-35.338-11.712-44.823-23.289-12.623-15.391-12.353-37.262-12.083-60.415 0.034-3.375 0.101-6.683 0.101-9.991 0-3.308-0.034-6.615-0.067-9.991-0.304-23.154-0.574-45.025 12.083-60.415 9.518-11.577 26.664-17.247 44.822-23.289 7.527-2.498 15.256-5.063 22.749-8.134 7.493-3.105 14.986-7.122 22.242-11.003 15.391-8.269 31.322-16.842 47.995-16.842 16.673 0 32.604 8.539 47.995 16.808 7.257 3.915 14.75 7.932 22.243 11.003 7.493 3.105 15.256 5.637 22.715 8.134 18.158 6.008 35.338 11.712 44.822 23.289 12.657 15.425 12.387 37.262 12.083 60.416-0.034 3.409-0.101 6.717-0.101 9.99 0 3.308 0.034 6.615 0.067 9.957z" fill="#000000" fill-rule="nonzero" stroke="none" stroke-width="1" stroke-linecap="butt" stroke-linejoin="miter" stroke-miterlimit="10" stroke-dasharray="" stroke-dashoffset="0" font-family="none" font-weight="none" font-size="none" text-anchor="none" style="mix-blend-mode: normal" data-fill-palette-color="tertiary"></path></g><g transform="matrix(1,0,0,1,75.6972749879518,108)"><svg viewBox="0 0 168.6054500240964 144" height="144" width="168.6054500240964"><g><svg viewBox="0 0 168.6054500240964 144" height="144" width="168.6054500240964"><g><svg viewBox="0 0 168.6054500240964 144" height="144" width="168.6054500240964"><g><svg viewBox="0 0 102.83461117196057 144" height="144" width="102.83461117196057"><g id="textblocktransform"><svg viewBox="0 0 102.83461117196057 144" height="144" width="102.83461117196057" id="textblock"><g><svg viewBox="0 0 102.83461117196057 144" height="144" width="102.83461117196057"><g transform="matrix(1,0,0,1,0,0)"><svg width="102.83461117196057" viewBox="-2.299999952316284 -35.900001525878906 32.599998474121094 45.650001525878906" height="144" data-palette-color="#ffffff"><path d="M7.8-25.35L7.8 2.75Q7.8 6.05 6.08 7.9 4.35 9.75 1.3 9.75L1.3 9.75Q-0.35 9.75-2.3 9L-2.3 9-2.3 5.5Q-0.4 6.3 1.1 6.3L1.1 6.3Q3.9 6.3 3.9 2.65L3.9 2.65 3.9-25.35 7.8-25.35ZM7.65-35.15Q8.4-34.4 8.4-33.3 8.4-32.2 7.65-31.48 6.9-30.75 5.8-30.75 4.7-30.75 3.98-31.48 3.25-32.2 3.25-33.3 3.25-34.4 3.98-35.15 4.7-35.9 5.8-35.9 6.9-35.9 7.65-35.15ZM30.3-6.75L30.3-6.75Q30.3-3.5 28.02-1.6 25.75 0.3 21.8 0.3L21.8 0.3Q17.2 0.3 14.35-1.25L14.35-1.25 14.35-5.1Q17.7-3.1 21.55-3.1L21.55-3.1Q23.85-3.1 25.05-4 26.25-4.9 26.25-6.45L26.25-6.45Q26.25-8.25 24.92-9.25 23.6-10.25 20.5-11.5L20.5-11.5Q17.65-12.6 15.92-14.25 14.2-15.9 14.2-18.7L14.2-18.7Q14.2-21.85 16.57-23.73 18.95-25.6 22.5-25.6L22.5-25.6Q26.45-25.6 28.85-24.5L28.85-24.5 28.85-20.75Q26.55-22.15 22.55-22.15L22.55-22.15Q20.55-22.15 19.37-21.23 18.2-20.3 18.2-18.85L18.2-18.85Q18.2-17.95 18.55-17.28 18.9-16.6 19.92-15.95 20.95-15.3 21.42-15.08 21.9-14.85 23.5-14.15L23.5-14.15Q26.7-12.85 28.5-11.2 30.3-9.55 30.3-6.75Z" opacity="1" transform="matrix(1,0,0,1,0,0)" fill="#ffffff" class="wordmark-text-0" data-fill-palette-color="quaternary" id="text-0"></path></svg></g></svg></g></svg></g></svg></g><g transform="matrix(1,0,0,1,136.82955517196058,41.96474455624413)"><svg viewBox="0 0 31.775894852135817 60.07051088751175" height="60.07051088751175" width="31.775894852135817"><g><svg xmlns="http://www.w3.org/2000/svg" xmlns:xlink="http://www.w3.org/1999/xlink" version="1.1" x="0" y="0" viewBox="28.897001266479492 14.987000465393066 31.54499626159668 59.634010314941406" enable-background="new 0 0 90 90" xml:space="preserve" height="60.07051088751175" width="31.775894852135817" class="icon-icon-0" data-fill-palette-color="quaternary" id="icon-0"><g fill="#ffffff" data-fill-palette-color="quaternary"><path d="M44.671 14.987c-8.698 0-15.774 7.077-15.774 15.776 0 5.492 4.74 10.338 9.454 13.237l-0.005 3.506c0 0.494 0.225 0.961 0.61 1.27l2.593 2.07-1.023 1.428c-0.216 0.279-0.339 0.627-0.339 0.994 0 0.387 0.137 0.75 0.372 1.033l1.173 1.639-1.191 1.49c-0.472 0.592-0.472 1.434 0 2.025l1.15 1.439-1.151 1.447c-0.471 0.594-0.471 1.434 0.001 2.024l1.15 1.444-1.132 1.371c-0.508 0.613-0.495 1.506 0.03 2.105l4.187 4.777c0.305 0.349 0.748 0.551 1.21 0.553l0.779 0.006c0.006 0 0.008 0 0.012 0 0.439 0 0.861-0.18 1.168-0.495l2.535-2.623c0.623-0.646 0.605-1.675-0.039-2.298-0.646-0.622-1.674-0.607-2.297 0.038l-1.717 1.772-2.483-2.834 1.077-1.304c0.059-0.071 0.08-0.155 0.125-0.233 0.028-0.045 0.051-0.088 0.074-0.137 0.06-0.131 0.103-0.26 0.125-0.398 0.017-0.086 0.023-0.17 0.025-0.26 0-0.101-0.006-0.193-0.023-0.291-0.02-0.129-0.058-0.25-0.11-0.373-0.025-0.057-0.051-0.108-0.083-0.162-0.042-0.073-0.061-0.155-0.115-0.227l-1.153-1.447 1.153-1.447c0.472-0.594 0.47-1.434-0.003-2.024l-1.147-1.44 1.147-1.438c0.455-0.568 0.475-1.369 0.051-1.961l-1.274-1.777 1.274-1.781c0.504-0.702 0.37-1.676-0.307-2.215l-3.184-2.543 0.005-3.648c0-0.586-0.312-1.126-0.823-1.416-3.981-2.264-8.633-6.476-8.633-10.898 0-6.907 5.619-12.526 12.524-12.526 6.905 0 12.523 5.619 12.523 12.526 0 4.41-4.666 8.628-8.661 10.898-0.509 0.29-0.823 0.829-0.823 1.413v19.397c0 0.896 0.729 1.625 1.625 1.625s1.625-0.729 1.625-1.625V44.002c4.729-2.907 9.484-7.757 9.484-13.238C60.443 22.064 53.367 14.987 44.671 14.987z" fill="#ffffff" data-fill-palette-color="quaternary"></path></g></svg></g></svg></g></svg></g></svg></g></svg></g></svg></g><defs></defs></svg><rect width="320" height="360" fill="none" stroke="none" visibility="hidden"></rect></g></svg></g></svg>